<?xml version="1.0" standalone="no"?><!DOCTYPE svg PUBLIC "-//W3C//DTD SVG 1.1//EN" "http://www.w3.org/Graphics/SVG/1.1/DTD/svg11.dtd"><svg t="1652250035489" class="icon" viewBox="0 0 1024 1024" version="1.1" xmlns="http://www.w3.org/2000/svg" p-id="20605" xmlns:xlink="http://www.w3.org/1999/xlink" width="200" height="200"><defs><style type="text/css">@font-face { font-family: feedback-iconfont; src: url("//at.alicdn.com/t/font_1031158_u69w8yhxdu.woff2?t=1630033759944") format("woff2"), url("//at.alicdn.com/t/font_1031158_u69w8yhxdu.woff?t=1630033759944") format("woff"), url("//at.alicdn.com/t/font_1031158_u69w8yhxdu.ttf?t=1630033759944") format("truetype"); }
</style></defs><path d="M909.375379 64.213487 108.35687 64.213487c-25.915229 0-44.37465 21.202904-44.37465 47.119157l0 659.573033 185.823196 188.564633L909.375379 959.470311c25.917276 0 49.862641-21.203928 49.862641-47.119157L959.238021 111.331621C959.238021 85.415368 935.293679 64.213487 909.375379 64.213487zM370.253672 841.672418c0 13.011338-10.54824 23.559579-23.559579 23.559579l-47.119157 0c-13.011338 0-23.559579-10.54824-23.559579-23.559579l0-94.237291c0-13.011338 10.54824-23.559579 23.559579-23.559579l47.119157 0c13.011338 0 23.559579 10.54824 23.559579 23.559579L370.253672 841.672418zM535.169699 841.672418c0 13.011338-10.54824 23.559579-23.559579 23.559579l-47.119157 0c-13.011338 0-23.559579-10.54824-23.559579-23.559579l0-94.237291c0-13.011338 10.54824-23.559579 23.559579-23.559579l47.119157 0c13.011338 0 23.559579 10.54824 23.559579 23.559579L535.169699 841.672418zM700.084703 841.672418c0 13.011338-10.54824 23.559579-23.559579 23.559579l-47.119157 0c-13.011338 0-23.559579-10.54824-23.559579-23.559579l0-94.237291c0-13.011338 10.54824-23.559579 23.559579-23.559579l47.119157 0c13.011338 0 23.559579 10.54824 23.559579 23.559579L700.084703 841.672418zM865.00073 841.672418c0 13.011338-10.54824 23.559579-23.559579 23.559579l-47.119157 0c-13.011338 0-23.559579-10.54824-23.559579-23.559579l0-94.237291c0-13.011338 10.54824-23.559579 23.559579-23.559579l47.119157 0c13.011338 0 23.559579 10.54824 23.559579 23.559579L865.00073 841.672418zM865.00073 535.400966 158.219511 535.400966l0-70.677713 706.781218 0L865.00073 535.400966zM865.00073 299.718199c0 25.915229-23.944342 47.208185-49.862641 47.208185L202.594161 346.926384c-25.915229 0-44.37465-21.292955-44.37465-47.208185L158.219511 111.331621l706.781218 0L865.00073 299.718199z" p-id="20606"></path></svg>