<?xml version="1.0" standalone="no"?><!DOCTYPE svg PUBLIC "-//W3C//DTD SVG 1.1//EN"
        "http://www.w3.org/Graphics/SVG/1.1/DTD/svg11.dtd">
<svg t="1647332350996" class="icon" viewBox="0 0 1024 1024" version="1.1" xmlns="http://www.w3.org/2000/svg"
     p-id="20516"
     width="200" height="200">
    <defs>
        <style type="text/css"></style>
    </defs>
    <path d="M609.792 258.048l195.072-16.384c27.648-3.072 52.224 16.384 55.808 43.52 0 2.048 0.512 3.584 0.512 5.632l1.536 271.36c-0.512 30.72-24.576 56.32-55.296 58.88l-195.072 16.384c-27.648 3.072-52.224-16.384-55.808-43.52 0-2.048-0.512-3.584-0.512-5.632l-1.536-271.36c0.512-30.72 24.576-56.32 55.296-58.88z"
          fill="#CAE4FF" p-id="20517"></path>
    <path d="M215.552 633.344c-10.24 0-17.92-8.192-17.92-17.92V280.064c0.512-32.256 26.624-58.368 58.88-57.856h45.056c33.28 2.048 66.048 11.264 95.744 26.112 9.216 4.096 13.312 14.336 9.216 23.552-4.096 9.216-14.336 13.312-23.552 9.216-25.6-12.8-53.248-20.992-81.408-23.04h-45.056c-12.288 0-22.528 9.728-22.528 21.504v335.36c-0.512 10.24-8.192 17.92-18.432 18.432z"
          fill="#0972E7" p-id="20518"></path>
    <path d="M860.16 151.552c28.672-0.512 52.224 22.016 52.736 50.688v461.312c-0.512 28.672-24.064 51.2-52.736 50.688h-87.552c-70.144 0-139.264 14.336-203.776 41.984l-50.176 21.504-50.176-21.504c-64.512-27.648-133.632-41.984-203.776-41.984H177.152c-28.672 0.512-52.224-22.016-52.736-50.688V202.24c0.512-28.672 24.064-51.2 52.736-50.688h87.552c55.808 0 110.592 11.264 161.792 33.28l50.176 21.504c26.624 11.264 56.832 11.264 83.456 0l50.176-21.504c51.2-22.016 105.984-33.28 161.792-33.28H860.16m0-53.248h-87.552c-62.976 0-124.928 12.8-182.784 37.376l-50.176 21.504c-13.312 5.632-28.16 5.632-41.984 0l-50.176-21.504c-57.856-24.576-119.808-37.376-182.784-37.376H177.152c-57.856-0.512-105.472 46.08-105.984 103.936v461.312c0.512 57.856 47.616 104.448 105.984 103.936h87.552c62.976 0 124.928 12.8 182.784 37.376l50.176 21.504c13.312 5.632 28.16 5.632 41.984 0l50.176-21.504c57.856-24.576 119.808-37.376 182.784-37.376H860.16c57.856 0.512 105.472-46.08 105.984-103.936V202.24c-1.024-57.856-48.128-104.448-105.984-103.936z"
          fill="#0972E7" p-id="20519"></path>
</svg>