<?xml version="1.0" standalone="no"?><!DOCTYPE svg PUBLIC "-//W3C//DTD SVG 1.1//EN" "http://www.w3.org/Graphics/SVG/1.1/DTD/svg11.dtd"><svg t="1652249977530" class="icon" viewBox="0 0 1024 1024" version="1.1" xmlns="http://www.w3.org/2000/svg" p-id="19061" xmlns:xlink="http://www.w3.org/1999/xlink" width="200" height="200"><defs><style type="text/css">@font-face { font-family: feedback-iconfont; src: url("//at.alicdn.com/t/font_1031158_u69w8yhxdu.woff2?t=1630033759944") format("woff2"), url("//at.alicdn.com/t/font_1031158_u69w8yhxdu.woff?t=1630033759944") format("woff"), url("//at.alicdn.com/t/font_1031158_u69w8yhxdu.ttf?t=1630033759944") format("truetype"); }
</style></defs><path d="M576 268.8h313.6c12.8 0 19.2-12.8 19.2-25.6v-76.8c0-12.8-6.4-25.6-19.2-25.6H518.4c-19.2 0-25.6 25.6-12.8 38.4l57.6 83.2c0 6.4 6.4 6.4 12.8 6.4z" p-id="19062"></path><path d="M902.4 320H576c-12.8 0-32-6.4-38.4-25.6L409.6 128c-12.8-12.8-25.6-19.2-44.8-19.2H128c-32 0-57.6 32-57.6 64V800c0 38.4 25.6 64 57.6 64h774.4c32 0 57.6-32 57.6-64V384c0-38.4-25.6-64-57.6-64zM633.6 672c0 19.2-12.8 32-32 32H204.8c-19.2 0-32-12.8-32-32s12.8-32 32-32H608c12.8 0 25.6 12.8 25.6 32z m166.4 0c0 19.2-12.8 32-32 32h-25.6c-19.2 0-32-12.8-32-32s12.8-32 32-32H768c19.2 0 32 12.8 32 32z" p-id="19063"></path></svg>