<?xml version="1.0" standalone="no"?><!DOCTYPE svg PUBLIC "-//W3C//DTD SVG 1.1//EN" "http://www.w3.org/Graphics/SVG/1.1/DTD/svg11.dtd"><svg t="1652248118901" class="icon" viewBox="0 0 1368 1024" version="1.1" xmlns="http://www.w3.org/2000/svg" p-id="5211" xmlns:xlink="http://www.w3.org/1999/xlink" width="267.1875" height="200"><defs><style type="text/css">@font-face { font-family: feedback-iconfont; src: url("//at.alicdn.com/t/font_1031158_u69w8yhxdu.woff2?t=1630033759944") format("woff2"), url("//at.alicdn.com/t/font_1031158_u69w8yhxdu.woff?t=1630033759944") format("woff"), url("//at.alicdn.com/t/font_1031158_u69w8yhxdu.ttf?t=1630033759944") format("truetype"); }
</style></defs><path d="M1316.84486 924.471028H146.42243c-26.796262 0-48.807477-22.011215-48.807477-48.807477V51.678505c0-26.796262 22.011215-48.807477 48.807477-48.807477h1170.42243c26.796262 0 48.807477 22.011215 48.807476 48.807477v823.985046c0 27.753271-22.011215 48.807477-48.807476 48.807477z" fill="#3973F4" p-id="5212"></path><path d="M1.914019 162.691589V950.31028c0 36.366355 28.71028 65.076636 65.076635 65.076636h1122.571963c36.366355 0 65.076636-29.66729 65.076635-65.076636V166.519626c0-38.280374-30.624299-68.904673-68.904673-68.904673H66.990654L1.914019 162.691589z" fill="#6097FD" p-id="5213"></path><path d="M834.51215 262.220561H1.914019V162.691589c0-36.366355 28.71028-65.076636 65.076635-65.076636h1122.571963c36.366355 0 65.076636 28.71028 65.076635 65.076636v99.528972H834.51215z" fill="#4988FD" p-id="5214"></path><path d="M103.357009 180.874766m-27.753271 0a27.753271 27.753271 0 1 0 55.506542 0 27.753271 27.753271 0 1 0-55.506542 0Z" fill="#FFFFFF" p-id="5215"></path><path d="M186.616822 180.874766m-27.753271 0a27.753271 27.753271 0 1 0 55.506542 0 27.753271 27.753271 0 1 0-55.506542 0Z" fill="#DFECFD" p-id="5216"></path><path d="M269.876636 180.874766m-27.753272 0a27.753271 27.753271 0 1 0 55.506543 0 27.753271 27.753271 0 1 0-55.506543 0Z" fill="#C4D9F2" p-id="5217"></path><path d="M455.536449 806.758879c-10.527103 0-20.097196-3.828037-26.796262-12.441122l-114.841122-135.895327a34.930841 34.930841 0 0 1 0-45.936449l114.841122-135.895327c12.441121-15.31215 35.409346-17.226168 49.764486-3.828037 15.31215 12.441121 17.226168 35.409346 3.828037 49.764486l-95.700934 112.927103 95.700934 112.927102c12.441121 15.31215 10.527103 37.323364-3.828037 49.764486-6.699065 6.699065-15.31215 8.613084-22.968224 8.613085zM785.704673 806.758879c-7.656075 0-16.269159-2.871028-22.968224-8.613085-15.31215-12.441121-17.226168-35.409346-3.828038-49.764486l95.700935-112.927102-95.700935-112.927103c-12.441121-15.31215-10.527103-37.323364 3.828038-49.764486 15.31215-12.441121 37.323364-10.527103 49.764486 3.828037l114.841121 135.895327c11.484112 13.398131 11.484112 32.538318 0 45.936449L812.500935 794.317757c-6.699065 8.613084-16.269159 12.441121-26.796262 12.441122zM570.37757 817.285981c-3.828037 0-7.656075-0.957009-11.484112-1.914018-18.183178-6.699065-28.71028-26.796262-22.011215-44.97944l100.485981-285.188785c6.699065-18.183178 26.796262-28.71028 44.97944-22.011215 18.183178 6.699065 28.71028 26.796262 22.011215 44.97944L603.872897 793.360748c-4.785047 14.35514-19.140187 23.925234-33.495327 23.925233z" fill="#3973F4" p-id="5218"></path></svg>