<?xml version="1.0" standalone="no"?><!DOCTYPE svg PUBLIC "-//W3C//DTD SVG 1.1//EN" "http://www.w3.org/Graphics/SVG/1.1/DTD/svg11.dtd"><svg t="1652249742210" class="icon" viewBox="0 0 1024 1024" version="1.1" xmlns="http://www.w3.org/2000/svg" p-id="13816" xmlns:xlink="http://www.w3.org/1999/xlink" width="200" height="200"><defs><style type="text/css">@font-face { font-family: feedback-iconfont; src: url("//at.alicdn.com/t/font_1031158_u69w8yhxdu.woff2?t=1630033759944") format("woff2"), url("//at.alicdn.com/t/font_1031158_u69w8yhxdu.woff?t=1630033759944") format("woff"), url("//at.alicdn.com/t/font_1031158_u69w8yhxdu.ttf?t=1630033759944") format("truetype"); }
</style></defs><path d="M362.496 444.61h-40.07v-75.356h39.804v-40.079h35.553v39.547h40.07v75.633h-40.07v0.256h-35.287zM226.324 798.28c0.021 1.863 0.052 3.256 0.072 4.167 0.01 0.553-0.092 1.076-0.123 1.629 1.25 30.822 26.655 55.52 57.774 55.52h513.905V802.99c0-11.305 9.175-20.48 20.48-20.48s20.48 9.175 20.48 20.48v77.087c0 11.305-9.175 20.48-20.48 20.48H280.955c-1.065 0-2.09-0.154-3.123-0.318-51.61-3.225-92.642-46.12-92.642-98.54 0-1.197 0.144-2.354 0.185-3.542-0.635-60.816 0-523.387 0.071-573.717-0.082-0.716-0.215-1.403-0.215-2.13 0-54.507 44.34-98.846 98.847-98.846H818.422c11.305 0 20.48 9.175 20.48 20.48V722.78c0 11.305-9.175 20.48-20.48 20.48-0.123 0-0.226-0.03-0.348-0.03-1.506 0.358-3.072 0.593-4.69 0.593H284.047c-30.76-0.01-55.93 24.136-57.723 54.457z m368.047-469.105h159.754v35.297h-40.07v40.08h-39.802v40.069h-40.08v39.813H594.36v84.398h204.36v-44.34H638.7v-35.296h40.069v-40.07h39.803v-40.079h40.079v-39.793h40.069V284.59H594.37v44.585z m-90.338 119.951h95.191v-44.585h-95.19v44.585zM278.108 568.812h44.33v-79.616h40.058v-0.256h75.356v79.882h44.585v-204.35h-40.08v-40.335H402.29V284.59h-44.33v40.07h-40.068v40.079h-39.814v204.073z" p-id="13817"></path></svg>