<?xml version="1.0" standalone="no"?><!DOCTYPE svg PUBLIC "-//W3C//DTD SVG 1.1//EN" "http://www.w3.org/Graphics/SVG/1.1/DTD/svg11.dtd"><svg t="1652249717177" class="icon" viewBox="0 0 1024 1024" version="1.1" xmlns="http://www.w3.org/2000/svg" p-id="13399" xmlns:xlink="http://www.w3.org/1999/xlink" width="200" height="200"><defs><style type="text/css">@font-face { font-family: feedback-iconfont; src: url("//at.alicdn.com/t/font_1031158_u69w8yhxdu.woff2?t=1630033759944") format("woff2"), url("//at.alicdn.com/t/font_1031158_u69w8yhxdu.woff?t=1630033759944") format("woff"), url("//at.alicdn.com/t/font_1031158_u69w8yhxdu.ttf?t=1630033759944") format("truetype"); }
</style></defs><path d="M843 937.5H214.6c-46.7 0-84.6-38-84.6-84.6V174.6C130 128 168 90 214.6 90H843c46.7 0 84.6 38 84.6 84.6v678.3c0 46.6-37.9 84.6-84.6 84.6zM214.6 154c-11.4 0-20.6 9.2-20.6 20.6v678.3c0 11.4 9.2 20.6 20.6 20.6H843c11.4 0 20.6-9.2 20.6-20.6V174.6c0-11.4-9.2-20.6-20.6-20.6H214.6z" p-id="13400"></path><path d="M763.3 328H293c-17.7 0-32-14.3-32-32s14.3-32 32-32h470.3c17.7 0 32 14.3 32 32s-14.3 32-32 32zM555 479H293c-17.7 0-32-14.3-32-32s14.3-32 32-32h262c17.7 0 32 14.3 32 32s-14.3 32-32 32zM448.1 616.8H293c-17.7 0-32-14.3-32-32s14.3-32 32-32h155.1c17.7 0 32 14.3 32 32s-14.3 32-32 32zM657 725.9c-68.9 0-124.9-56-124.9-124.9s56-124.9 124.9-124.9 124.9 56 124.9 124.9-56 124.9-124.9 124.9z m0-185.8c-33.6 0-60.9 27.3-60.9 60.9s27.3 60.9 60.9 60.9 60.9-27.3 60.9-60.9-27.3-60.9-60.9-60.9z" p-id="13401"></path><path d="M792.4 784.7c-8.2 0-16.4-3.1-22.6-9.4L691.4 697c-12.5-12.5-12.5-32.8 0-45.3s32.8-12.5 45.3 0l78.4 78.4c12.5 12.5 12.5 32.8 0 45.3-6.3 6.2-14.5 9.3-22.7 9.3z" p-id="13402"></path></svg>